<svg width="80" height="80" viewBox="0 0 80 80" fill="none" xmlns="http://www.w3.org/2000/svg">
<path d="M41.7602 39.3056C41.7602 39.3056 29.6213 40.4318 24.6804 36.25C20.9905 33.1271 19.5564 25.5556 19.5564 25.5556C19.5564 25.5556 26.0858 25.6315 29.8042 27.0834C36.3026 29.6206 41.7602 39.3056 41.7602 39.3056ZM41.7602 39.3056C41.7602 39.3056 47.4059 37.8151 50.2144 35.7258C57.8041 30.0797 57.2777 17.2567 53.7163 13.3334C53.7163 13.3334 44.2694 16.5681 41.7603 22.5C39.3883 28.1082 41.7602 39.3056 41.7602 39.3056ZM41.7602 39.3056V50" stroke="#355848" stroke-width="3" stroke-linecap="round" stroke-linejoin="round"/>
<path d="M13.3333 65C14.2815 65 20.0494 65 22.8148 65H25.8824H54.3268H58.3704H66.6667" stroke="#707070" stroke-width="3" stroke-linecap="round"/>
<path d="M13.3333 55C16.2787 55 19.4576 55 22.7451 55M66.6667 55C66.6667 55 65.5238 55 63.5294 55M22.7451 55V65M22.7451 55C31.093 55 40.1409 55 47.8431 55M47.8431 55V65M47.8431 55C54.535 55 60.211 55 63.5294 55M63.5294 55V65" stroke="#707070" stroke-width="3" stroke-linecap="round"/>
</svg>
