<svg width="80" height="80" viewBox="0 0 80 80" fill="none" xmlns="http://www.w3.org/2000/svg">
<path d="M16.6667 55.2536V57.7451C16.6667 58.0061 16.7687 58.2567 16.951 58.4435L20.6148 62.1983C20.803 62.3912 21.0611 62.5 21.3305 62.5H62.3334C62.8856 62.5 63.3334 62.0522 63.3334 61.5V30.1666C63.3334 29.6143 62.8856 29.1666 62.3334 29.1666H30.101" stroke="#707070" stroke-width="3" stroke-miterlimit="10" stroke-linecap="round"/>
<path d="M43.3334 50H40.4H38.8H36.6667" stroke="#355848" stroke-width="3" stroke-miterlimit="10" stroke-linecap="round"/>
<path d="M36.6667 36.6666H50.5556L52.7779 40H56.6667" stroke="#355848" stroke-width="3" stroke-miterlimit="10" stroke-linecap="round"/>
<path d="M50 46.6666L56.6667 46.6666" stroke="#355848" stroke-width="3" stroke-miterlimit="10" stroke-linecap="round"/>
<path d="M50 55.8333L56.6667 55.8333" stroke="#355848" stroke-width="3" stroke-miterlimit="10" stroke-linecap="round"/>
<path d="M26.076 19.4283C25.8917 19.26 25.6511 19.1666 25.4015 19.1666H21.2652C21.0156 19.1666 20.775 19.26 20.5908 19.4283L16.9922 22.7154C16.7848 22.9048 16.6667 23.1728 16.6667 23.4537V50.2321C16.6667 51.1014 17.6993 51.5567 18.3411 50.9704L20.5908 48.9155C20.775 48.7471 21.0156 48.6538 21.2652 48.6538H24.6998C24.9493 48.6538 25.1899 48.7471 25.3742 48.9155L29.1534 52.3677C29.2466 52.4528 29.3682 52.5 29.4944 52.5C29.7737 52.5 30 52.2736 30 51.9944V23.4537C30 23.1728 29.8819 22.9048 29.6745 22.7154L26.076 19.4283Z" stroke="#707070" stroke-width="3" stroke-miterlimit="10"/>
</svg>
