<svg width="80" height="80" viewBox="0 0 80 80" fill="none" xmlns="http://www.w3.org/2000/svg">
<path d="M44.2368 42.2176C51.4809 35.1413 46.3057 29.1813 40.0885 24.4794C33.7297 19.6704 43.7222 31.3132 33.7297 35.1098C23.7373 38.9064 22.8288 53.3334 40.997 53.3334C59.1651 53.3334 51.8978 36.6284 51.8978 38.9064C51.8978 40.5861 47.2673 41.9647 44.4083 42.5667C44.2114 42.6081 44.0928 42.3582 44.2368 42.2176Z" stroke="#355848" stroke-width="3"/>
<path d="M13.9653 20.3054L39.632 10.1457C39.8684 10.0521 40.1316 10.0521 40.3681 10.1457L66.0347 20.3054C66.4161 20.4564 66.6667 20.825 66.6667 21.2352V55.2024C66.6667 55.5385 66.4979 55.8521 66.2174 56.0372L40.5507 72.97C40.2166 73.1904 39.7834 73.1904 39.4493 72.97L13.7827 56.0372C13.5021 55.8521 13.3333 55.5385 13.3333 55.2024V21.2352C13.3333 20.825 13.5839 20.4564 13.9653 20.3054Z" stroke="#707070" stroke-width="3" stroke-linecap="round"/>
</svg>
