<svg width="80" height="80" viewBox="0 0 80 80" fill="none" xmlns="http://www.w3.org/2000/svg">
<path d="M40.0724 37.0691C40.0724 41.7961 37.3551 48.414 37.3551 48.414M38.2608 38.9599C38.2608 38.9599 40.9782 31.3966 34.6377 25.7242C28.2971 20.0517 18.3333 21.9426 18.3333 21.9426C18.3333 21.9426 18.3333 29.5058 23.7681 35.1783C29.2029 40.8507 38.2608 38.9599 38.2608 38.9599ZM40.0724 35.1783C40.0724 35.1783 37.3551 27.615 43.6956 21.9426C50.0362 16.2701 60 18.1609 60 18.1609C60 18.1609 60 25.7242 54.5652 31.3966C49.1304 37.0691 40.0724 35.1783 40.0724 35.1783Z" stroke="#707070" stroke-width="3" stroke-linecap="round" stroke-linejoin="round"/>
<path d="M26.7419 49.2196H48.8137C48.8137 49.2196 50.5115 63.1085 37.7778 63.1085C25.0441 63.1085 26.7419 49.2196 26.7419 49.2196Z" stroke="#355848" stroke-width="3" stroke-linecap="round" stroke-linejoin="round"/>
</svg>
