<svg width="24" height="24" viewBox="0 0 24 24" fill="none" xmlns="http://www.w3.org/2000/svg">
<path d="M7.41211 15.915C7.43066 15.9756 7.44718 16.0371 7.45996 16.0996L7.54199 16.5L7.45996 16.9004C7.44758 16.961 7.43089 17.0203 7.41309 17.0791C7.46946 16.8929 7.5 16.6981 7.5 16.5C7.5 16.2999 7.46961 16.103 7.41211 15.915ZM7.41211 15.915C7.39403 15.856 7.37296 15.7981 7.34961 15.7412C7.37299 15.7982 7.39407 15.8561 7.41211 15.915ZM19.4121 15.915C19.4696 16.103 19.5 16.2999 19.5 16.5C19.5 16.7611 19.4482 17.0167 19.3516 17.2539C19.3978 17.1401 19.4352 17.0222 19.46 16.9004L19.541 16.5H19.542L19.46 16.0996C19.4472 16.0371 19.4307 15.9756 19.4121 15.915ZM19.4121 15.915C19.394 15.856 19.373 15.7981 19.3496 15.7412C19.373 15.7982 19.3941 15.8561 19.4121 15.915ZM3.65918 15.7178C3.55505 15.9628 3.5 16.2286 3.5 16.5C3.5 16.7704 3.55485 17.035 3.6582 17.2793M3.65918 15.7178C3.6072 15.8401 3.56697 15.9678 3.54004 16.0996L3.45801 16.5L3.54004 16.9004C3.56676 17.0312 3.60681 17.1579 3.6582 17.2793M3.65918 15.7178C3.67995 15.6689 3.703 15.6212 3.72754 15.5742C3.70298 15.6212 3.67991 15.669 3.65918 15.7178ZM3.6582 17.2793C3.67918 17.3289 3.70268 17.3772 3.72754 17.4248C3.70266 17.3771 3.67914 17.3288 3.6582 17.2793ZM5.5 14.5C5.56051 14.5 5.62081 14.5034 5.68066 14.5088C5.62082 14.5034 5.56058 14.5 5.5 14.5ZM5.5 14.5C5.43909 14.5 5.37852 14.5033 5.31836 14.5088C5.32162 14.5085 5.32486 14.5081 5.32812 14.5078L5.5 14.5ZM15.5 16.5H15.459L15.54 16.9004C15.5652 17.0241 15.6022 17.1443 15.6494 17.2598C15.5514 17.021 15.5 16.7631 15.5 16.5ZM15.5 16.5V15.4902L16.2969 14.9023C16.3159 14.8883 16.336 14.8757 16.3555 14.8623C16.2602 14.9289 16.1693 15.0026 16.0859 15.0859C15.7109 15.461 15.5 15.9696 15.5 16.5ZM15.9541 17.7686C15.9955 17.819 16.0394 17.8675 16.0859 17.9141C16.461 18.2891 16.9696 18.5 17.5 18.5C18.0304 18.5 18.539 18.2891 18.9141 17.9141C18.9583 17.8698 18.9995 17.8232 19.0391 17.7754C18.9569 17.8748 18.8667 17.9682 18.7656 18.0508C18.4084 18.3427 17.9613 18.5029 17.5 18.5029C17.0387 18.5029 16.5916 18.3427 16.2344 18.0508C16.1308 17.9661 16.0379 17.8708 15.9541 17.7686ZM5.5 18.5L5.32812 18.4922C5.32484 18.4919 5.32165 18.4905 5.31836 18.4902C5.37855 18.4957 5.43906 18.5 5.5 18.5ZM5.25098 18.4824C5.20806 18.477 5.1654 18.471 5.12305 18.4629C5.16538 18.471 5.20805 18.477 5.25098 18.4824ZM5.87598 18.4629C5.83362 18.471 5.79097 18.4771 5.74805 18.4824C5.79098 18.4771 5.83364 18.471 5.87598 18.4629ZM5.0791 18.4531C5.03207 18.443 4.98556 18.4314 4.93945 18.418C4.98553 18.4314 5.03206 18.443 5.0791 18.4531ZM6.05957 18.418C6.01346 18.4314 5.96696 18.443 5.91992 18.4531C5.96698 18.443 6.01348 18.4314 6.05957 18.418ZM4.8877 18.4023C4.84815 18.3896 4.80919 18.3755 4.77051 18.3604C4.80917 18.3755 4.84814 18.3896 4.8877 18.4023ZM6.22852 18.3604C6.18982 18.3755 6.15089 18.3896 6.11133 18.4023C6.1509 18.3896 6.18985 18.3755 6.22852 18.3604ZM4.70898 18.335C4.67005 18.3182 4.6316 18.3005 4.59375 18.2812C4.63158 18.3005 4.67004 18.3182 4.70898 18.335ZM6.40527 18.2812C6.36741 18.3005 6.32899 18.3182 6.29004 18.335C6.329 18.3182 6.36743 18.3005 6.40527 18.2812ZM4.54492 18.2559C4.50237 18.2327 4.46082 18.2079 4.41992 18.1816C4.46079 18.2079 4.50236 18.2327 4.54492 18.2559ZM6.5791 18.1816C6.53819 18.2079 6.49667 18.2327 6.4541 18.2559C6.49668 18.2327 6.53822 18.2079 6.5791 18.1816ZM4.09277 17.9199C4.18283 18.0092 4.28005 18.0894 4.38379 18.1592C4.33272 18.1248 4.28238 18.089 4.23438 18.0498C4.18455 18.0091 4.13814 17.9649 4.09277 17.9199ZM6.90625 17.9199C6.86103 17.9647 6.81527 18.0093 6.76562 18.0498C6.71741 18.0892 6.66654 18.1247 6.61523 18.1592C6.71904 18.0894 6.81613 18.0092 6.90625 17.9199ZM4.06641 17.8926C4.02967 17.8548 3.99446 17.8158 3.96094 17.7754C3.99439 17.8158 4.02962 17.8547 4.06641 17.8926ZM7.03809 17.7754C7.00454 17.8158 6.96938 17.8548 6.93262 17.8926C6.96943 17.8547 7.00461 17.8158 7.03809 17.7754ZM3.93848 17.748C3.90658 17.7082 3.87636 17.6671 3.84766 17.625C3.87631 17.6671 3.90655 17.7081 3.93848 17.748ZM7.15137 17.625C7.12276 17.667 7.0933 17.7083 7.06152 17.748C7.09334 17.7082 7.12281 17.6669 7.15137 17.625ZM15.8262 17.5938C15.7967 17.5486 15.7689 17.5025 15.7432 17.4551C15.7689 17.5024 15.7966 17.5486 15.8262 17.5938ZM19.2559 17.4551C19.2302 17.5024 19.2032 17.5487 19.1738 17.5938C19.2033 17.5487 19.2302 17.5022 19.2559 17.4551ZM3.82324 17.5889C3.79539 17.546 3.76961 17.5019 3.74512 17.457C3.76956 17.5019 3.79536 17.5459 3.82324 17.5889ZM7.25488 17.457C7.23031 17.5021 7.20374 17.5458 7.17578 17.5889C7.20377 17.5458 7.23035 17.502 7.25488 17.457ZM3.75 15.5332C3.7731 15.4914 3.79721 15.4502 3.82324 15.4102C3.79718 15.4503 3.77306 15.4915 3.75 15.5332ZM7.17578 15.4102C7.20184 15.4502 7.2259 15.4914 7.24902 15.5332C7.22594 15.4914 7.20186 15.4503 7.17578 15.4102ZM19.1758 15.4102C19.2018 15.4502 19.2259 15.4914 19.249 15.5332C19.2259 15.4914 19.2019 15.4503 19.1758 15.4102ZM3.84766 15.374C3.87662 15.3315 3.90724 15.2902 3.93945 15.25C3.9072 15.2903 3.87657 15.3316 3.84766 15.374ZM7.05957 15.25C7.09181 15.2902 7.12238 15.3315 7.15137 15.374C7.12243 15.3316 7.09185 15.2903 7.05957 15.25ZM19.0596 15.25C19.0918 15.2902 19.1224 15.3315 19.1514 15.374C19.1224 15.3316 19.0918 15.2903 19.0596 15.25ZM3.96094 15.2236C3.99446 15.1832 4.02967 15.1442 4.06641 15.1064C4.02962 15.1443 3.9944 15.1833 3.96094 15.2236ZM6.93262 15.1064C6.96938 15.1442 7.00454 15.1832 7.03809 15.2236C7.0046 15.1833 6.96943 15.1443 6.93262 15.1064ZM18.9326 15.1064C18.9694 15.1442 19.0045 15.1832 19.0381 15.2236C19.0046 15.1833 18.9694 15.1443 18.9326 15.1064ZM4.38379 14.8398C4.28007 14.9096 4.18283 14.9899 4.09277 15.0791C4.13799 15.0343 4.18473 14.9907 4.23438 14.9502C4.28252 14.9109 4.33256 14.8743 4.38379 14.8398ZM6.61523 14.8398C6.6667 14.8744 6.71726 14.9107 6.76562 14.9502C6.81509 14.9906 6.86118 15.0345 6.90625 15.0791C6.81614 14.9899 6.71902 14.9096 6.61523 14.8398ZM18.6152 14.8398C18.6667 14.8744 18.7173 14.9107 18.7656 14.9502C18.8151 14.9906 18.8612 15.0345 18.9062 15.0791C18.8161 14.9899 18.719 14.9096 18.6152 14.8398ZM16.4131 14.8213C16.4341 14.8079 16.456 14.7959 16.4775 14.7832C16.4561 14.796 16.4341 14.8077 16.4131 14.8213ZM4.42969 14.8125C4.46764 14.7884 4.50556 14.7646 4.54492 14.7432C4.50555 14.7646 4.46761 14.7884 4.42969 14.8125ZM6.4541 14.7432C6.49372 14.7647 6.53212 14.7883 6.57031 14.8125C6.53214 14.7883 6.49373 14.7647 6.4541 14.7432ZM18.4541 14.7432C18.4937 14.7647 18.5321 14.7883 18.5703 14.8125C18.5321 14.7883 18.4937 14.7647 18.4541 14.7432ZM4.59375 14.7178C4.63159 14.6985 4.67006 14.6808 4.70898 14.6641C4.67005 14.6808 4.63156 14.6985 4.59375 14.7178ZM6.29004 14.6641C6.32898 14.6808 6.36742 14.6986 6.40527 14.7178C6.36744 14.6986 6.32899 14.6808 6.29004 14.6641ZM18.29 14.6641C18.329 14.6808 18.3674 14.6986 18.4053 14.7178C18.3674 14.6986 18.329 14.6808 18.29 14.6641ZM4.77051 14.6387C4.80917 14.6235 4.84816 14.6094 4.8877 14.5967C4.84816 14.6094 4.80915 14.6235 4.77051 14.6387ZM6.11133 14.5967C6.15087 14.6094 6.18984 14.6235 6.22852 14.6387C6.18986 14.6235 6.15088 14.6094 6.11133 14.5967ZM18.1113 14.5967C18.1509 14.6094 18.1898 14.6235 18.2285 14.6387C18.1899 14.6235 18.1509 14.6094 18.1113 14.5967ZM16.8213 14.6211C16.8414 14.6138 16.8615 14.6063 16.8818 14.5996C16.8614 14.6062 16.8414 14.6138 16.8213 14.6211ZM4.93945 14.5811C4.98554 14.5676 5.03209 14.556 5.0791 14.5459C5.03208 14.556 4.98551 14.5676 4.93945 14.5811ZM5.91992 14.5459C5.96694 14.556 6.01348 14.5676 6.05957 14.5811C6.0135 14.5676 5.96695 14.556 5.91992 14.5459ZM17.9199 14.5459C17.9669 14.556 18.0135 14.5676 18.0596 14.5811C18.0135 14.5676 17.967 14.556 17.9199 14.5459ZM16.9629 14.5752C16.9981 14.5653 17.0335 14.5559 17.0693 14.5479C17.0335 14.5558 16.9982 14.5653 16.9629 14.5752ZM5.12305 14.5361C5.16538 14.528 5.20808 14.522 5.25098 14.5166C5.20807 14.522 5.16536 14.528 5.12305 14.5361ZM5.74805 14.5166C5.79095 14.522 5.83364 14.528 5.87598 14.5361C5.83366 14.528 5.79096 14.522 5.74805 14.5166ZM17.748 14.5166C17.7909 14.522 17.8336 14.528 17.876 14.5361C17.8337 14.528 17.791 14.522 17.748 14.5166ZM17.1348 14.5342C17.176 14.5264 17.2178 14.5208 17.2598 14.5156C17.2178 14.5207 17.1761 14.5265 17.1348 14.5342ZM17.5 14.5C17.5605 14.5 17.6208 14.5034 17.6807 14.5088C17.6208 14.5034 17.5606 14.5 17.5 14.5ZM20.4004 10.7002L18.9004 8.7002L18.75 8.5L20.4004 10.7002ZM19.1572 17.6172C19.1233 17.6676 19.0873 17.7164 19.0488 17.7637C19.0874 17.7164 19.1233 17.6675 19.1572 17.6172ZM15.9502 17.7637C15.9118 17.7164 15.8757 17.6676 15.8418 17.6172C15.8757 17.6675 15.9117 17.7164 15.9502 17.7637ZM7.3418 17.2773C7.32057 17.3276 7.2967 17.3765 7.27148 17.4248C7.29672 17.3765 7.32061 17.3275 7.3418 17.2773ZM7.27148 15.5742C7.29652 15.6221 7.31971 15.6708 7.34082 15.7207C7.31975 15.6709 7.29654 15.6222 7.27148 15.5742ZM19.2715 15.5742C19.2965 15.6221 19.3197 15.6708 19.3408 15.7207C19.3197 15.6709 19.2965 15.6222 19.2715 15.5742ZM19.3428 17.2734C19.3202 17.3273 19.2957 17.38 19.2686 17.4316C19.2957 17.38 19.3202 17.3272 19.3428 17.2734ZM15.7305 17.4316C15.7037 17.3807 15.6795 17.3286 15.6572 17.2754C15.6795 17.3284 15.7036 17.3807 15.7305 17.4316Z" stroke="#141414"/>
</svg>
