<svg width="24" height="24" viewBox="0 0 24 24" fill="none" xmlns="http://www.w3.org/2000/svg">
<path d="M12 0.966797C12.1085 0.966797 12.2147 0.999575 12.3037 1.06152V1.0625C13.7137 2.10251 15.0045 3.29555 16.1514 4.62012C18.6914 7.54124 20.0312 10.6121 20.0312 13.5C20.0312 15.63 19.1849 17.6735 17.6787 19.1797C16.1726 20.6856 14.1299 21.5312 12 21.5312C9.87014 21.5312 7.82741 20.6856 6.32129 19.1797C4.81514 17.6735 3.96875 15.63 3.96875 13.5C3.96884 10.6121 5.30859 7.54124 7.84863 4.62012C8.99545 3.29558 10.2853 2.10152 11.6953 1.06152C11.7845 0.999282 11.8912 0.966797 12 0.966797ZM11.9805 2.17773C11.2761 2.72151 9.54012 4.15087 7.97949 6.14355C6.41911 8.13595 5.03135 10.6954 5.03125 13.5C5.03349 15.3475 5.76879 17.1194 7.0752 18.4258C8.29985 19.6503 9.93285 20.3725 11.6543 20.46L12 20.4688C13.8474 20.4665 15.6184 19.732 16.9248 18.4258C18.2312 17.1194 18.9665 15.3475 18.9688 13.5L18.9648 13.2383C18.882 10.5363 17.5322 8.07381 16.0205 6.14355C14.4599 4.15087 12.7239 2.72151 12.0195 2.17773L12 2.16309L11.9805 2.17773ZM16.5889 13.7266C16.6575 13.7382 16.7232 13.7628 16.7822 13.7998C16.8414 13.8369 16.8931 13.8855 16.9336 13.9424C16.974 13.9992 17.003 14.0639 17.0186 14.1318C17.0341 14.1998 17.036 14.2702 17.0244 14.3389C16.8379 15.3806 16.3362 16.3405 15.5879 17.0889C14.8395 17.8371 13.8796 18.338 12.8379 18.5244C12.8088 18.5288 12.7794 18.531 12.75 18.5312C12.6164 18.5318 12.4872 18.4818 12.3887 18.3916C12.2905 18.3015 12.23 18.1778 12.2188 18.0449C12.2076 17.9118 12.247 17.7792 12.3291 17.6738C12.4111 17.5686 12.5295 17.4983 12.6611 17.4766C14.3036 17.2006 15.6967 15.8063 15.9756 14.1621C15.9991 14.0231 16.0775 13.8991 16.1924 13.8174C16.2491 13.7771 16.313 13.748 16.3809 13.7324C16.4489 13.7168 16.52 13.7149 16.5889 13.7266Z" fill="#141414" stroke="#141414" stroke-width="0.0625"/>
</svg>
