<svg width="24" height="24" viewBox="0 0 24 24" fill="none" xmlns="http://www.w3.org/2000/svg">
<mask id="path-1-inside-1_4015_3236" fill="white">
<path d="M11.5 19.2695C10.8973 19.2695 10.3717 19.0768 9.923 18.6915C9.47433 18.3075 9.19233 17.8331 9.077 17.2685H10.116C10.218 17.5651 10.3937 17.8058 10.643 17.9905C10.8923 18.1758 11.178 18.2685 11.5 18.2685C11.9113 18.2685 12.2643 18.1215 12.559 17.8275C12.8537 17.5335 13.0007 17.1805 13 16.7685C12.9993 16.3565 12.8523 16.0038 12.559 15.7105C12.2643 15.4158 11.9113 15.2685 11.5 15.2685H2.5V14.2685H11.5C12.1927 14.2685 12.7827 14.5121 13.27 14.9995C13.7573 15.4868 14.0007 16.0768 14 16.7695C13.9993 17.4621 13.756 18.0518 13.27 18.5385C12.784 19.0251 12.194 19.2685 11.5 19.2685M2.5 9.73047V8.73047H15.5C16.0613 8.73047 16.535 8.53747 16.921 8.15147C17.307 7.76547 17.5 7.2918 17.5 6.73047C17.5 6.16914 17.307 5.69547 16.921 5.30947C16.535 4.92347 16.0613 4.73014 15.5 4.72947C15.0153 4.72947 14.5993 4.87147 14.252 5.15547C13.9047 5.4388 13.6797 5.79714 13.577 6.23047H12.538C12.6533 5.5038 12.9877 4.90514 13.541 4.43447C14.0943 3.96514 14.7473 3.73047 15.5 3.73047C16.3427 3.73047 17.0533 4.0198 17.632 4.59847C18.2107 5.17714 18.5 5.8878 18.5 6.73047C18.5 7.57314 18.2107 8.2838 17.632 8.86247C17.0533 9.44114 16.3427 9.73047 15.5 9.73047H2.5ZM19 17.4595V16.4215C19.4333 16.3188 19.7917 16.0938 20.075 15.7465C20.3583 15.3991 20.5 14.9835 20.5 14.4995C20.5 13.9381 20.307 13.4645 19.921 13.0785C19.535 12.6925 19.0613 12.4995 18.5 12.4995H2.5V11.4995H18.5C19.3427 11.4995 20.0533 11.7888 20.632 12.3675C21.2107 12.9461 21.5 13.6568 21.5 14.4995C21.5 15.2521 21.265 15.9051 20.795 16.4585C20.325 17.0118 19.7267 17.3455 19 17.4595Z"/>
</mask>
<path d="M9.923 18.6915L10.5745 17.9328L10.5732 17.9317L9.923 18.6915ZM9.077 17.2685V16.2685H7.8521L8.09723 17.4686L9.077 17.2685ZM10.116 17.2685L11.0617 16.9433L10.8296 16.2685H10.116V17.2685ZM10.643 17.9905L11.2396 17.1879L11.2382 17.1869L10.643 17.9905ZM2.5 15.2685H1.5V16.2685H2.5V15.2685ZM2.5 14.2685V13.2685H1.5V14.2685H2.5ZM2.5 9.73047H1.5V10.7305H2.5V9.73047ZM2.5 8.73047V7.73047H1.5V8.73047H2.5ZM15.5 4.72947L15.5012 3.72947H15.5V4.72947ZM14.252 5.15547L14.8841 5.93035L14.885 5.92962L14.252 5.15547ZM13.577 6.23047V7.23047H14.3678L14.5501 6.46101L13.577 6.23047ZM12.538 6.23047L11.5504 6.07372L11.3668 7.23047H12.538V6.23047ZM13.541 4.43447L12.8942 3.67185L12.8931 3.67276L13.541 4.43447ZM19 17.4595H18V18.6286L19.155 18.4474L19 17.4595ZM19 16.4215L18.7695 15.4484L18 15.6307V16.4215H19ZM18.5 12.4995V11.4995V12.4995ZM2.5 12.4995H1.5V13.4995H2.5V12.4995ZM2.5 11.4995V10.4995H1.5V11.4995H2.5ZM21.5 14.4995H20.5H21.5ZM11.5 19.2695V18.2695C11.1314 18.2695 10.8381 18.1592 10.5745 17.9328L9.923 18.6915L9.27147 19.4501C9.90522 19.9944 10.6633 20.2695 11.5 20.2695V19.2695ZM9.923 18.6915L10.5732 17.9317C10.2891 17.6886 10.1264 17.4093 10.0568 17.0683L9.077 17.2685L8.09723 17.4686C8.25826 18.257 8.65957 18.9264 9.27277 19.4512L9.923 18.6915ZM9.077 17.2685V18.2685H10.116V17.2685V16.2685H9.077V17.2685ZM10.116 17.2685L9.17033 17.5936C9.33731 18.0793 9.63405 18.4876 10.0478 18.7941L10.643 17.9905L11.2382 17.1869C11.1533 17.124 11.0987 17.051 11.0617 16.9433L10.116 17.2685ZM10.643 17.9905L10.0464 18.793C10.4749 19.1115 10.9715 19.2685 11.5 19.2685V18.2685V17.2685C11.3845 17.2685 11.3098 17.2401 11.2396 17.1879L10.643 17.9905ZM11.5 18.2685V19.2685C12.1797 19.2685 12.7857 19.0139 13.2653 18.5354L12.559 17.8275L11.8527 17.1196C11.743 17.229 11.643 17.2685 11.5 17.2685V18.2685ZM12.559 17.8275L13.2653 18.5354C13.7462 18.0556 14.0011 17.4481 14 16.7668L13 16.7685L12 16.7701C12.0002 16.9128 11.9611 17.0114 11.8527 17.1196L12.559 17.8275ZM13 16.7685L14 16.7668C13.9989 16.0882 13.7451 15.4824 13.2661 15.0034L12.559 15.7105L11.8519 16.4176C11.9595 16.5252 11.9998 16.6248 12 16.7701L13 16.7685ZM12.559 15.7105L13.2661 15.0034C12.7867 14.5239 12.1804 14.2685 11.5 14.2685V15.2685V16.2685C11.6422 16.2685 11.742 16.3077 11.8519 16.4176L12.559 15.7105ZM11.5 15.2685V14.2685H2.5V15.2685V16.2685H11.5V15.2685ZM2.5 15.2685H3.5V14.2685H2.5H1.5V15.2685H2.5ZM2.5 14.2685V15.2685H11.5V14.2685V13.2685H2.5V14.2685ZM11.5 14.2685V15.2685C11.929 15.2685 12.2642 15.4078 12.5629 15.7066L13.27 14.9995L13.9771 14.2924C13.3012 13.6164 12.4564 13.2685 11.5 13.2685V14.2685ZM13.27 14.9995L12.5629 15.7066C12.8614 16.0051 13.0004 16.3399 13 16.7685L14 16.7695L15 16.7704C15.0009 15.8137 14.6533 14.9685 13.9771 14.2924L13.27 14.9995ZM14 16.7695L13 16.7685C12.9996 17.1986 12.8599 17.5339 12.5624 17.8318L13.27 18.5385L13.9776 19.2451C14.6521 18.5697 14.9991 17.7256 15 16.7704L14 16.7695ZM13.27 18.5385L12.5624 17.8318C12.2659 18.1288 11.9312 18.2685 11.5 18.2685V19.2685V20.2685C12.4568 20.2685 13.3021 19.9215 13.9776 19.2451L13.27 18.5385ZM2.5 9.73047H3.5V8.73047H2.5H1.5V9.73047H2.5ZM2.5 8.73047V9.73047H15.5V8.73047V7.73047H2.5V8.73047ZM15.5 8.73047V9.73047C16.3182 9.73047 17.0487 9.43797 17.6281 8.85858L16.921 8.15147L16.2139 7.44436C16.0213 7.63697 15.8045 7.73047 15.5 7.73047V8.73047ZM16.921 8.15147L17.6281 8.85858C18.2075 8.27918 18.5 7.54862 18.5 6.73047H17.5H16.5C16.5 7.03498 16.4065 7.25175 16.2139 7.44436L16.921 8.15147ZM17.5 6.73047H18.5C18.5 5.91232 18.2075 5.18175 17.6281 4.60236L16.921 5.30947L16.2139 6.01658C16.4065 6.20918 16.5 6.42595 16.5 6.73047H17.5ZM16.921 5.30947L17.6281 4.60236C17.049 4.02327 16.3189 3.73044 15.5012 3.72947L15.5 4.72947L15.4988 5.72947C15.8037 5.72983 16.021 5.82367 16.2139 6.01658L16.921 5.30947ZM15.5 4.72947V3.72947C14.8045 3.72947 14.1598 3.93916 13.619 4.38131L14.252 5.15547L14.885 5.92962C15.0389 5.80377 15.2262 5.72947 15.5 5.72947V4.72947ZM14.252 5.15547L13.6199 4.38058C13.1034 4.80195 12.7577 5.35108 12.6039 5.99993L13.577 6.23047L14.5501 6.46101C14.6017 6.24319 14.706 6.07565 14.8841 5.93035L14.252 5.15547ZM13.577 6.23047V5.23047H12.538V6.23047V7.23047H13.577V6.23047ZM12.538 6.23047L13.5256 6.38722C13.6041 5.89297 13.8199 5.51003 14.1889 5.19618L13.541 4.43447L12.8931 3.67276C12.1554 4.30024 11.7026 5.11464 11.5504 6.07372L12.538 6.23047ZM13.541 4.43447L14.1878 5.19709C14.5533 4.88713 14.9746 4.73047 15.5 4.73047V3.73047V2.73047C14.52 2.73047 13.6354 3.04314 12.8942 3.67185L13.541 4.43447ZM15.5 3.73047V4.73047C16.0863 4.73047 16.5399 4.92059 16.9249 5.30558L17.632 4.59847L18.3391 3.89136C17.5668 3.11902 16.5991 2.73047 15.5 2.73047V3.73047ZM17.632 4.59847L16.9249 5.30558C17.3099 5.69057 17.5 6.14421 17.5 6.73047H18.5H19.5C19.5 5.6314 19.1115 4.66371 18.3391 3.89136L17.632 4.59847ZM18.5 6.73047H17.5C17.5 7.31673 17.3099 7.77037 16.9249 8.15536L17.632 8.86247L18.3391 9.56958C19.1115 8.79723 19.5 7.82954 19.5 6.73047H18.5ZM17.632 8.86247L16.9249 8.15536C16.5399 8.54035 16.0863 8.73047 15.5 8.73047V9.73047V10.7305C16.5991 10.7305 17.5668 10.3419 18.3391 9.56958L17.632 8.86247ZM15.5 9.73047V8.73047H2.5V9.73047V10.7305H15.5V9.73047ZM19 17.4595H20V16.4215H19H18V17.4595H19ZM19 16.4215L19.2305 17.3945C19.8794 17.2408 20.4285 16.8951 20.8499 16.3786L20.075 15.7465L19.3001 15.1144C19.1548 15.2925 18.9873 15.3968 18.7695 15.4484L19 16.4215ZM20.075 15.7465L20.8499 16.3786C21.2908 15.8381 21.5 15.1941 21.5 14.4995H20.5H19.5C19.5 14.7728 19.4259 14.9602 19.3001 15.1144L20.075 15.7465ZM20.5 14.4995H21.5C21.5 13.6813 21.2075 12.9508 20.6281 12.3714L19.921 13.0785L19.2139 13.7856C19.4065 13.9782 19.5 14.195 19.5 14.4995H20.5ZM19.921 13.0785L20.6281 12.3714C20.0487 11.792 19.3182 11.4995 18.5 11.4995V12.4995V13.4995C18.8045 13.4995 19.0213 13.593 19.2139 13.7856L19.921 13.0785ZM18.5 12.4995V11.4995H2.5V12.4995V13.4995H18.5V12.4995ZM2.5 12.4995H3.5V11.4995H2.5H1.5V12.4995H2.5ZM2.5 11.4995V12.4995H18.5V11.4995V10.4995H2.5V11.4995ZM18.5 11.4995V12.4995C19.0863 12.4995 19.5399 12.6896 19.9249 13.0746L20.632 12.3675L21.3391 11.6604C20.5668 10.888 19.5991 10.4995 18.5 10.4995V11.4995ZM20.632 12.3675L19.9249 13.0746C20.3099 13.4596 20.5 13.9132 20.5 14.4995H21.5H22.5C22.5 13.4004 22.1115 12.4327 21.3391 11.6604L20.632 12.3675ZM21.5 14.4995H20.5C20.5 15.0245 20.3433 15.4456 20.0328 15.8111L20.795 16.4585L21.5572 17.1059C22.1867 16.3646 22.5 15.4798 22.5 14.4995H21.5ZM20.795 16.4585L20.0328 15.8111C19.7201 16.1792 19.3385 16.3941 18.845 16.4716L19 17.4595L19.155 18.4474C20.1149 18.2968 20.9299 17.8444 21.5572 17.1059L20.795 16.4585Z" fill="#141414" mask="url(#path-1-inside-1_4015_3236)"/>
</svg>
