<svg width="80" height="80" viewBox="0 0 80 80" fill="none" xmlns="http://www.w3.org/2000/svg">
<path d="M40 43.3333C37.3478 43.3333 34.8043 42.2095 32.9289 40.2091C31.0536 38.2087 30 35.4956 30 32.6666C30 27.9973 33.3875 24.2626 36.3663 20.84L40 16.6666L43.6337 20.84C46.6125 24.264 50 27.9986 50 32.6666C50 35.4956 48.9464 38.2087 47.0711 40.2091C45.1957 42.2095 42.6522 43.3333 40 43.3333Z" stroke="#707070" stroke-width="3" stroke-linecap="round" stroke-linejoin="round"/>
<path d="M13.3333 50C14.2815 50 20.0494 50 22.8148 50L26.3704 53.3333H54.8148L58.3704 50H66.6667" stroke="#355848" stroke-width="3" stroke-linecap="round"/>
<path d="M13.3333 60C14.2815 60 20.0494 60 22.8148 60L26.3704 66.6667H54.8148L58.3704 60H66.6667" stroke="#355848" stroke-width="3" stroke-linecap="round"/>
</svg>
