<svg width="80" height="80" viewBox="0 0 80 80" fill="none" xmlns="http://www.w3.org/2000/svg">
<path d="M40.5769 56.4263L64.4513 46.4786C65.2718 46.1368 65.2718 44.9744 64.4513 44.6325L53.718 40.1603C53.4718 40.0577 53.1949 40.0577 52.9487 40.1603L40.3846 45.3953C40.1385 45.4979 39.8615 45.4979 39.6154 45.3953L27.0513 40.1603C26.8051 40.0577 26.5282 40.0577 26.2821 40.1603L15.5487 44.6325C14.7282 44.9744 14.7282 46.1368 15.5487 46.4786L39.4231 56.4263C39.7923 56.5801 40.2077 56.5801 40.5769 56.4263Z" stroke="#707070" stroke-width="3" stroke-linecap="round"/>
<path d="M39.4733 23.5309L15.8302 32.397C14.9651 32.7215 14.9651 33.9453 15.8302 34.2697L39.4733 43.1359C39.8129 43.2632 40.1871 43.2632 40.5267 43.1359L64.1698 34.2697C65.035 33.9453 65.035 32.7215 64.1698 32.397L40.5267 23.5309C40.1871 23.4035 39.8129 23.4035 39.4733 23.5309Z" stroke="#355848" stroke-width="3" stroke-linecap="round"/>
</svg>
