<svg width="24" height="24" viewBox="0 0 24 24" fill="none" xmlns="http://www.w3.org/2000/svg">
<path d="M21 12C21 13.1819 20.7672 14.3522 20.3149 15.4442C19.8626 16.5361 19.1997 17.5282 18.364 18.364C17.5282 19.1997 16.5361 19.8626 15.4442 20.3149C14.3522 20.7672 13.1819 21 12 21C10.8181 21 9.64778 20.7672 8.55585 20.3149C7.46392 19.8626 6.47177 19.1997 5.63604 18.364C4.80031 17.5282 4.13738 16.5361 3.68508 15.4442C3.23279 14.3522 3 13.1819 3 12C3 9.61305 3.94821 7.32387 5.63604 5.63604C7.32387 3.94821 9.61305 3 12 3C14.3869 3 16.6761 3.94821 18.364 5.63604C20.0518 7.32387 21 9.61305 21 12Z" stroke="#141414" stroke-linecap="round" stroke-linejoin="round"/>
<path d="M13 3.04883C12.3655 3.58216 11.8736 4.26487 11.5684 5.03553C11.2633 5.80619 11.1545 6.64062 11.2519 7.46375C11.3493 8.28688 11.6498 9.07289 12.1263 9.75106C12.6029 10.4292 13.2406 10.9783 13.982 11.3488C16 12.3618 16.771 10.9968 17.863 11.7328C18.573 12.2108 18.76 13.1728 18.283 13.8818C17.782 14.6238 17 15.0008 17.135 16.2178C17.212 16.9048 17.634 17.4958 18.18 18.0008M4 9.28083C5.12088 9.55266 6.11265 10.2051 6.806 11.1268C7.54783 12.1067 7.90115 13.3262 7.798 14.5508C7.746 15.1768 8.154 15.8088 8.679 16.1538C9.02658 16.3816 9.31712 16.6862 9.52817 17.0442C9.73923 17.4021 9.86514 17.8038 9.89616 18.2182C9.92719 18.6326 9.86251 19.0486 9.70712 19.434C9.55172 19.8194 9.30978 20.1639 9 20.4408" stroke="#141414" stroke-linecap="round" stroke-linejoin="round"/>
</svg>
