<svg width="16" height="16" viewBox="0 0 16 16" fill="none" xmlns="http://www.w3.org/2000/svg">
<path d="M5.99996 3.66732C5.99996 3.57891 6.03508 3.49413 6.09759 3.43162C6.1601 3.3691 6.24489 3.33398 6.33329 3.33398H9.66663C9.75503 3.33398 9.83982 3.3691 9.90233 3.43162C9.96484 3.49413 9.99996 3.57891 9.99996 3.66732C9.99996 3.75572 9.96484 3.84051 9.90233 3.90302C9.83982 3.96553 9.75503 4.00065 9.66663 4.00065H6.33329C6.24489 4.00065 6.1601 3.96553 6.09759 3.90302C6.03508 3.84051 5.99996 3.75572 5.99996 3.66732ZM4.99996 5.33398C4.91155 5.33398 4.82677 5.3691 4.76426 5.43162C4.70174 5.49413 4.66663 5.57891 4.66663 5.66732C4.66663 5.75572 4.70174 5.84051 4.76426 5.90302C4.82677 5.96553 4.91155 6.00065 4.99996 6.00065H11C11.0884 6.00065 11.1732 5.96553 11.2357 5.90302C11.2982 5.84051 11.3333 5.75572 11.3333 5.66732C11.3333 5.57891 11.2982 5.49413 11.2357 5.43162C11.1732 5.3691 11.0884 5.33398 11 5.33398H4.99996ZM4.66663 7.00065C4.66663 6.91225 4.70174 6.82746 4.76426 6.76495C4.82677 6.70244 4.91155 6.66732 4.99996 6.66732H11C11.0884 6.66732 11.1732 6.70244 11.2357 6.76495C11.2982 6.82746 11.3333 6.91225 11.3333 7.00065C11.3333 7.08906 11.2982 7.17384 11.2357 7.23635C11.1732 7.29887 11.0884 7.33398 11 7.33398H4.99996C4.91155 7.33398 4.82677 7.29887 4.76426 7.23635C4.70174 7.17384 4.66663 7.08906 4.66663 7.00065ZM4.99996 8.00065C4.91155 8.00065 4.82677 8.03577 4.76426 8.09828C4.70174 8.16079 4.66663 8.24558 4.66663 8.33398C4.66663 8.42239 4.70174 8.50717 4.76426 8.56969C4.82677 8.6322 4.91155 8.66732 4.99996 8.66732H11C11.0884 8.66732 11.1732 8.6322 11.2357 8.56969C11.2982 8.50717 11.3333 8.42239 11.3333 8.33398C11.3333 8.24558 11.2982 8.16079 11.2357 8.09828C11.1732 8.03577 11.0884 8.00065 11 8.00065H4.99996Z" fill="currentColor"/>
<path fill-rule="evenodd" clip-rule="evenodd" d="M12.6667 12.0007C12.6667 12.3543 12.5262 12.6934 12.2762 12.9435C12.0261 13.1935 11.687 13.334 11.3334 13.334H10.3334V14.6673L9.33337 14.1673L8.33337 14.6673V13.334H4.66671C4.31309 13.334 3.97395 13.1935 3.7239 12.9435C3.47385 12.6934 3.33337 12.3543 3.33337 12.0007V2.66732C3.33337 2.3137 3.47385 1.97456 3.7239 1.72451C3.97395 1.47446 4.31309 1.33398 4.66671 1.33398H11.3334C11.687 1.33398 12.0261 1.47446 12.2762 1.72451C12.5262 1.97456 12.6667 2.3137 12.6667 2.66732V12.0007ZM4.66671 2.00065C4.4899 2.00065 4.32033 2.07089 4.1953 2.19591C4.07028 2.32094 4.00004 2.49051 4.00004 2.66732V12.0007C4.00004 12.1775 4.07028 12.347 4.1953 12.4721C4.32033 12.5971 4.4899 12.6673 4.66671 12.6673H8.33337V11.8827C8.16365 11.6902 8.05306 11.4529 8.01488 11.1991C7.9767 10.9454 8.01255 10.686 8.11812 10.4522C8.2237 10.2183 8.39451 10.0198 8.61007 9.88064C8.82563 9.74144 9.07678 9.6674 9.33337 9.6674C9.58997 9.6674 9.84112 9.74144 10.0567 9.88064C10.2722 10.0198 10.4431 10.2183 10.5486 10.4522C10.6542 10.686 10.69 10.9454 10.6519 11.1991C10.6137 11.4529 10.5031 11.6902 10.3334 11.8827V12.6673H11.3334C11.5102 12.6673 11.6798 12.5971 11.8048 12.4721C11.9298 12.347 12 12.1775 12 12.0007V2.66732C12 2.49051 11.9298 2.32094 11.8048 2.19591C11.6798 2.07089 11.5102 2.00065 11.3334 2.00065H4.66671ZM9.66671 12.292C9.44807 12.3484 9.21868 12.3484 9.00004 12.292V13.5887L9.33337 13.422L9.66671 13.5887V12.292ZM9.33337 11.6673C9.51019 11.6673 9.67975 11.5971 9.80478 11.4721C9.9298 11.347 10 11.1775 10 11.0007C10 10.8238 9.9298 10.6543 9.80478 10.5292C9.67975 10.4042 9.51019 10.334 9.33337 10.334C9.15656 10.334 8.98699 10.4042 8.86197 10.5292C8.73695 10.6543 8.66671 10.8238 8.66671 11.0007C8.66671 11.1775 8.73695 11.347 8.86197 11.4721C8.98699 11.5971 9.15656 11.6673 9.33337 11.6673Z" fill="currentColor"/>
</svg>
