<svg width="16" height="16" viewBox="0 0 16 16" fill="none" xmlns="http://www.w3.org/2000/svg">
<path d="M11.3333 12C11.6869 12 12.0261 12.1405 12.2761 12.3905C12.5261 12.6406 12.6666 12.9797 12.6666 13.3333C12.6666 13.6869 12.5261 14.0261 12.2761 14.2761C12.0261 14.5262 11.6869 14.6666 11.3333 14.6666C10.9797 14.6666 10.6405 14.5262 10.3905 14.2761C10.1404 14.0261 9.99996 13.6869 9.99996 13.3333C9.99996 12.5933 10.5933 12 11.3333 12ZM0.666626 1.33331H2.84663L3.47329 2.66665H13.3333C13.5101 2.66665 13.6797 2.73688 13.8047 2.86191C13.9297 2.98693 14 3.1565 14 3.33331C14 3.44665 13.9666 3.55998 13.92 3.66665L11.5333 7.97998C11.3066 8.38665 10.8666 8.66665 10.3666 8.66665H5.39996L4.79996 9.75331L4.77996 9.83331C4.77996 9.87752 4.79752 9.91991 4.82877 9.95116C4.86003 9.98242 4.90242 9.99998 4.94663 9.99998H12.6666V11.3333H4.66663C4.313 11.3333 3.97387 11.1928 3.72382 10.9428C3.47377 10.6927 3.33329 10.3536 3.33329 9.99998C3.33329 9.76665 3.39329 9.54665 3.49329 9.35998L4.39996 7.72665L1.99996 2.66665H0.666626V1.33331ZM4.66663 12C5.02025 12 5.35939 12.1405 5.60943 12.3905C5.85948 12.6406 5.99996 12.9797 5.99996 13.3333C5.99996 13.6869 5.85948 14.0261 5.60943 14.2761C5.35939 14.5262 5.02025 14.6666 4.66663 14.6666C4.313 14.6666 3.97387 14.5262 3.72382 14.2761C3.47377 14.0261 3.33329 13.6869 3.33329 13.3333C3.33329 12.5933 3.92663 12 4.66663 12ZM10.6666 7.33331L12.52 3.99998H4.09329L5.66663 7.33331H10.6666Z" fill="currentColor"/>
</svg>
