<svg width="24" height="24" viewBox="0 0 24 24" fill="none" xmlns="http://www.w3.org/2000/svg">
<path d="M4 19.1777V10.1777C4 9.86107 4.071 9.56107 4.213 9.27773C4.355 8.9944 4.55067 8.76107 4.8 8.57773L10.8 4.07773C11.15 3.81107 11.55 3.67773 12 3.67773C12.45 3.67773 12.85 3.81107 13.2 4.07773L19.2 8.57773C19.45 8.76107 19.646 8.9944 19.788 9.27773C19.93 9.56107 20.0007 9.86107 20 10.1777V19.1777C20 19.7277 19.804 20.1987 19.412 20.5907C19.02 20.9827 18.5493 21.1784 18 21.1777H15C14.7167 21.1777 14.4793 21.0817 14.288 20.8897C14.0967 20.6977 14.0007 20.4604 14 20.1777V15.1777C14 14.8944 13.904 14.6571 13.712 14.4657C13.52 14.2744 13.2827 14.1784 13 14.1777H11C10.7167 14.1777 10.4793 14.2737 10.288 14.4657C10.0967 14.6577 10.0007 14.8951 10 15.1777V20.1777C10 20.4611 9.904 20.6987 9.712 20.8907C9.52 21.0827 9.28267 21.1784 9 21.1777H6C5.45 21.1777 4.97933 20.9821 4.588 20.5907C4.19667 20.1994 4.00067 19.7284 4 19.1777Z" fill="currentColor"/>
</svg>
