<svg width="16" height="16" viewBox="0 0 16 16" fill="none" xmlns="http://www.w3.org/2000/svg">
<path d="M4.27778 6.82287V6.40065H3.85555V6.82287H4.27778ZM7.65555 6.82287V6.40065H7.23333V6.82287H7.65555ZM7.65555 10.2007H7.23333V10.6229H7.65555V10.2007ZM13.5667 4.28954H13.9889V4.11474L13.8656 3.99061L13.5667 4.28954ZM11.0333 1.75621L11.3323 1.45727L11.2081 1.33398H11.0333V1.75621ZM4.27778 7.2451H5.12222V6.40065H4.27778V7.2451ZM4.7 10.6229V8.51176H3.85555V10.6229H4.7ZM4.7 8.51176V6.82287H3.85555V8.51176H4.7ZM5.12222 8.08954H4.27778V8.93398H5.12222V8.08954ZM5.54444 7.66732C5.54444 7.7793 5.49996 7.88669 5.42078 7.96587C5.34159 8.04506 5.2342 8.08954 5.12222 8.08954V8.93398C5.45816 8.93398 5.78034 8.80053 6.01789 8.56299C6.25543 8.32544 6.38889 8.00326 6.38889 7.66732H5.54444ZM5.12222 7.2451C5.2342 7.2451 5.34159 7.28958 5.42078 7.36876C5.49996 7.44794 5.54444 7.55534 5.54444 7.66732H6.38889C6.38889 7.33138 6.25543 7.0092 6.01789 6.77165C5.78034 6.5341 5.45816 6.40065 5.12222 6.40065V7.2451ZM7.23333 6.82287V10.2007H8.07778V6.82287H7.23333ZM7.65555 10.6229H8.5V9.77843H7.65555V10.6229ZM9.76666 9.35621V7.66732H8.92222V9.35621H9.76666ZM8.5 6.40065H7.65555V7.2451H8.5V6.40065ZM9.76666 7.66732C9.76666 7.33138 9.63321 7.0092 9.39567 6.77165C9.15812 6.5341 8.83594 6.40065 8.5 6.40065V7.2451C8.61198 7.2451 8.71937 7.28958 8.79855 7.36876C8.87774 7.44794 8.92222 7.55534 8.92222 7.66732H9.76666ZM8.5 10.6229C8.83594 10.6229 9.15812 10.4894 9.39567 10.2519C9.63321 10.0143 9.76666 9.69215 9.76666 9.35621H8.92222C8.92222 9.46819 8.87774 9.57558 8.79855 9.65476C8.71937 9.73394 8.61198 9.77843 8.5 9.77843V10.6229ZM10.6111 6.40065V10.6229H11.4556V6.40065H10.6111ZM11.0333 7.2451H13.1444V6.40065H11.0333V7.2451ZM11.0333 8.93398H12.3V8.08954H11.0333V8.93398ZM3.85555 5.55621V2.60065H3.01111V5.55621H3.85555ZM13.1444 4.28954V5.55621H13.9889V4.28954H13.1444ZM4.27778 2.17843H11.0333V1.33398H4.27778V2.17843ZM10.7344 2.05514L13.2677 4.58847L13.8656 3.99061L11.3323 1.45727L10.7344 2.05514ZM3.85555 2.60065C3.85555 2.48867 3.90004 2.38128 3.97922 2.30209C4.0584 2.22291 4.16579 2.17843 4.27778 2.17843V1.33398C3.94183 1.33398 3.61965 1.46744 3.38211 1.70498C3.14456 1.94253 3.01111 2.26471 3.01111 2.60065H3.85555ZM3.01111 11.4673V12.734H3.85555V11.4673H3.01111ZM4.27778 14.0007H12.7222V13.1562H4.27778V14.0007ZM13.9889 12.734V11.4673H13.1444V12.734H13.9889ZM12.7222 14.0007C13.0582 14.0007 13.3803 13.8672 13.6179 13.6297C13.8554 13.3921 13.9889 13.0699 13.9889 12.734H13.1444C13.1444 12.846 13.1 12.9534 13.0208 13.0325C12.9416 13.1117 12.8342 13.1562 12.7222 13.1562V14.0007ZM3.01111 12.734C3.01111 13.0699 3.14456 13.3921 3.38211 13.6297C3.61965 13.8672 3.94183 14.0007 4.27778 14.0007V13.1562C4.16579 13.1562 4.0584 13.1117 3.97922 13.0325C3.90004 12.9534 3.85555 12.846 3.85555 12.734H3.01111Z" fill="currentColor"/>
</svg>
