<svg width="16" height="16" viewBox="0 0 16 16" fill="none" xmlns="http://www.w3.org/2000/svg">
<path d="M12.7773 4.1001H12.7783C12.7796 4.10011 12.7869 4.09984 12.7988 4.10107C12.8089 4.10212 12.8195 4.10479 12.8301 4.10693C12.8419 4.19408 12.8466 4.28187 12.8408 4.36963C12.6845 5.98899 12.0101 9.93753 11.665 11.7739C11.5997 12.121 11.5121 12.297 11.4512 12.3774C11.423 12.4146 11.4042 12.4273 11.3994 12.4302C11.3982 12.4309 11.397 12.4309 11.3965 12.4312H11.3975C11.1341 12.4542 10.8998 12.3145 10.4326 11.9829L10.4307 11.9819C10.3177 11.9023 10.1946 11.815 10.0645 11.73H10.0635C9.5875 11.4198 9.22061 11.1707 8.84961 10.9194H8.84863C8.50887 10.6897 8.16486 10.4566 7.73535 10.1753C7.55087 10.0545 7.46876 9.9698 7.43555 9.92432C7.44566 9.90712 7.46339 9.8795 7.49512 9.84131C7.56361 9.7589 7.65692 9.66885 7.78613 9.54541L7.78711 9.54443C7.8665 9.46812 7.95576 9.38194 8.04395 9.2915L8.04688 9.28857C8.04851 9.28696 8.05891 9.27725 8.08301 9.25439C8.10716 9.23149 8.1398 9.2007 8.17969 9.16357L8.49219 8.87451C8.89601 8.5017 9.4914 7.95142 9.99121 7.47314C10.2406 7.2345 10.4711 7.01006 10.6426 6.83252C10.7276 6.74447 10.8037 6.66163 10.8623 6.59229C10.8911 6.55821 10.9217 6.52014 10.9482 6.48193C10.9623 6.46166 11.0213 6.3783 11.0479 6.26807L11.0508 6.2583C11.067 6.18443 11.0718 6.0907 11.0576 5.99561C11.0436 5.90165 10.9978 5.72874 10.8428 5.59229C10.6908 5.45845 10.5186 5.43275 10.4092 5.43213C10.3062 5.43159 10.2145 5.45317 10.1865 5.45947C10.1071 5.47744 10.0383 5.51526 10.0312 5.51904C10.0045 5.5331 9.97438 5.5502 9.94434 5.56787C9.8831 5.6039 9.80205 5.65483 9.70312 5.71729C9.50433 5.84279 9.21999 6.02668 8.85254 6.26807C8.11696 6.75129 7.03815 7.46974 5.61719 8.42334L5.61426 8.42529C5.24376 8.6774 4.96844 8.7574 4.77344 8.75342C4.64779 8.75074 4.4229 8.71116 4.13379 8.63916C3.85703 8.57022 3.55698 8.48149 3.29785 8.39795H3.29883C3.21622 8.37059 3.13119 8.34413 3.06348 8.32275H3.06152C2.92403 8.27992 2.80814 8.24364 2.70703 8.20752C2.70453 8.20663 2.70168 8.20548 2.69922 8.20459C2.77229 8.16748 2.86282 8.12634 2.97363 8.08252L2.98145 8.07959L2.98828 8.07666C6.03082 6.75942 8.05608 5.89235 9.06641 5.4751C10.5175 4.87547 11.3824 4.52869 11.9316 4.33057C12.4894 4.12936 12.6706 4.10198 12.7773 4.1001Z" fill="currentColor" stroke="currentColor"/>
</svg>
