<svg width="16" height="16" viewBox="0 0 16 16" fill="none" xmlns="http://www.w3.org/2000/svg">
<path d="M8.09705 5.13184H8.09802C8.28029 5.13346 8.45111 5.14737 8.61072 5.18066C8.63231 5.18517 8.64301 5.1908 8.64587 5.19238C8.64771 5.19343 8.64761 5.19318 8.64685 5.19238C8.64902 5.19531 8.65981 5.21206 8.66736 5.25488C8.68473 5.35309 8.69203 5.44966 8.68982 5.54004C8.68357 5.80324 8.6739 6.08069 8.66443 6.36035L8.64294 7.19629C8.63982 7.43994 8.65788 7.70232 8.71716 7.96094V7.96191C8.76855 8.18496 8.91029 8.48418 9.23865 8.5918C9.58122 8.70401 9.87572 8.52882 10.0463 8.35938C10.3442 8.06335 10.6002 7.73585 10.8304 7.41992C11.1596 6.96774 11.4232 6.48773 11.6478 6.00098L11.8607 5.5127C11.8766 5.47428 11.8902 5.44769 11.8998 5.42871L12.0052 5.42285C12.6936 5.42135 13.3813 5.42077 14.0687 5.42285C14.0832 5.42292 14.0973 5.42436 14.1107 5.4248C14.0151 5.68462 13.8525 5.93613 13.642 6.2207C13.4325 6.50382 13.2196 6.78124 13.0043 7.05957L12.3519 7.90332C12.2793 7.998 12.2185 8.09451 12.1674 8.18262V8.18359C12.0726 8.34756 11.9662 8.57458 11.9974 8.84277C12.0294 9.11618 12.1898 9.31524 12.3344 9.45801C12.7519 9.87037 13.0956 10.1589 13.4623 10.543C13.7081 10.8008 13.9336 11.0787 14.1244 11.3672C14.1388 11.389 14.1474 11.4076 14.1537 11.4219C14.1366 11.4275 14.1131 11.4342 14.0814 11.4385C13.9722 11.4532 13.5625 11.4547 13.1136 11.4492C12.7062 11.4443 12.2791 11.4337 12.2435 11.4336C11.9531 11.4323 11.7176 11.3389 11.5267 11.1631H11.5258C11.2132 10.8748 10.958 10.5862 10.6234 10.251C10.5187 10.146 10.3997 10.0379 10.266 9.94043C10.0713 9.79825 9.80346 9.68857 9.51013 9.75C9.19942 9.8151 8.99685 10.0421 8.89294 10.292V10.293C8.81871 10.4725 8.76433 10.746 8.73083 10.9355C8.69572 11.1343 8.66943 11.3288 8.66541 11.3828C8.66515 11.3861 8.66378 11.389 8.66345 11.3916C8.65077 11.3957 8.62877 11.4024 8.59314 11.4043C7.68149 11.4516 6.84678 11.351 6.08435 10.96C5.42464 10.6218 4.88692 10.1393 4.40857 9.55469C3.63067 8.60404 3.01047 7.55072 2.43396 6.44531C2.43328 6.44395 2.43066 6.43971 2.42615 6.43066C2.42052 6.41937 2.41212 6.40379 2.40271 6.38477C2.38394 6.34681 2.35925 6.29499 2.32947 6.23438C2.26987 6.11307 2.19301 5.95585 2.11658 5.79883C2.04859 5.65916 1.98047 5.52063 1.92615 5.40723C2.1135 5.40592 2.34833 5.40682 2.58337 5.40918C2.83366 5.41169 3.08196 5.41569 3.2699 5.41895C3.45491 5.42215 3.56761 5.42466 3.57751 5.4248C3.67213 5.42971 3.70852 5.44873 3.72107 5.45703C3.72591 5.46025 3.73615 5.46745 3.74939 5.48438L3.79724 5.57129C4.18443 6.48664 4.67971 7.3607 5.33826 8.15039C5.42805 8.2584 5.53176 8.3526 5.63806 8.43262L5.74451 8.50781C5.90059 8.61032 6.12675 8.69168 6.37439 8.62402C6.63381 8.553 6.78964 8.35398 6.86267 8.1582C6.91297 8.02378 6.95222 7.84967 6.97888 7.69922C6.99241 7.62284 7.00402 7.54207 7.01306 7.46387L7.02966 7.24414C7.03496 6.98376 7.03502 6.76761 7.02966 6.55273L6.99939 5.86816L6.98279 5.70312C6.95613 5.52926 6.89528 5.33371 6.75818 5.15625C6.75032 5.14609 6.74095 5.13675 6.73279 5.12695C7.17548 5.1101 7.61385 5.12724 8.09705 5.13184Z" fill="currentColor" stroke="currentColor"/>
</svg>
