<svg width="40" height="40" viewBox="0 0 40 40" fill="none" xmlns="http://www.w3.org/2000/svg">
<path d="M36.6667 20.0007C36.6667 29.2057 29.205 36.6673 20 36.6673C17.0743 36.6714 14.1994 35.902 11.6667 34.4373L3.33338 35.834L4.72004 26.6673C3.80395 24.5642 3.33188 22.2946 3.33338 20.0007C3.33338 10.7957 10.795 3.33398 20 3.33398C29.205 3.33398 36.6667 10.7957 36.6667 20.0007Z" stroke="currentColor" stroke-width="2" stroke-linecap="round" stroke-linejoin="round"/>
<path d="M21.6001 23.1146L25.0667 22.438L28.3334 23.693V26.7313C28.3334 27.743 27.4634 28.5146 26.4834 28.298C23.9451 27.7413 19.3334 26.3413 16.1301 23.1146C13.0801 20.043 12.0384 15.7646 11.6834 13.403C11.5417 12.458 12.2901 11.668 13.2384 11.668H16.3951L17.6201 14.9496L16.9717 18.4513" stroke="currentColor" stroke-width="2" stroke-linecap="round" stroke-linejoin="round"/>
</svg>
