<svg width="132" height="26" viewBox="0 0 132 26" fill="none" xmlns="http://www.w3.org/2000/svg">
<g clip-path="url(#clip0_4002_1117)">
<path d="M5.37934 0.809066C4.99634 1.15821 4.5611 1.68193 4.40442 1.96124C4.02142 2.71191 4.07364 4.07357 4.52629 4.78932C4.89188 5.40033 5.98867 6.44775 6.24978 6.44775C6.33688 6.44775 6.73724 6.13351 7.13766 5.73202C8.39113 4.51001 8.6523 3.34037 7.99071 1.96124C7.65994 1.28041 6.56316 0.163147 6.2324 0.163147C6.16274 0.163147 5.77975 0.459921 5.37934 0.809066Z" fill="#141414"/>
<path d="M6.84184 7.33818L0 9.60762V11.4232V13.2562H2.07171H4.16082L4.21305 12.4357L4.26528 11.6327L7.8342 10.4282C9.80141 9.78224 11.5424 9.18867 11.7165 9.13631C11.995 9.04904 12.0124 9.41564 12.0124 15.0718V21.112H13.9971H15.9992L16.0514 20.3613L16.1036 19.6281L22.162 19.5757L28.2031 19.5409V14.5655V9.60762L21.2916 7.32075C17.4789 6.08125 14.2234 5.0513 14.0145 5.06876C13.823 5.06876 10.5849 6.09875 6.84184 7.33818ZM20.1948 10.3757C22.162 11.0217 23.8334 11.6152 23.903 11.6851C24.0248 11.7898 24.0771 13.3435 24.0423 15.7526L24.0248 16.3985L20.073 16.3636L16.1036 16.3112L16.0514 12.9071C15.9992 9.39815 16.0514 8.97919 16.417 9.10139C16.5215 9.15375 18.2276 9.72982 20.1948 10.3757Z" fill="#141414"/>
<path d="M0 24.4288V26H14.1015H28.2031V24.4288V22.8577H14.1015H0V24.4288Z" fill="#141414"/>
<path d="M123.19 9.93539L123.141 10.5558L121.349 10.6538C119.314 10.7517 118.891 10.8823 118.289 11.617C117.605 12.417 117.491 13.1843 117.556 16.3352C117.605 18.8658 117.637 19.2739 117.93 19.78C118.452 20.6943 119.445 21.0861 121.496 21.2004L123.222 21.2984V21.8535V22.3922H124.769H126.315V21.8535V21.2984L128.041 21.2004C130.19 21.0861 131.086 20.6943 131.59 19.6984C131.883 19.1433 131.949 18.6698 131.981 16.6128C132.079 12.6129 131.834 11.7313 130.385 10.9966C129.783 10.7027 129.409 10.6374 127.992 10.6374H126.315V9.98437V9.3313H124.785H123.238L123.19 9.93539ZM123.352 15.8944L123.303 18.7188H122.277C121.366 18.7188 121.187 18.6698 120.91 18.3107C120.617 17.9515 120.601 17.7066 120.649 15.7638C120.715 13.119 120.731 13.0863 122.261 13.0863H123.385L123.352 15.8944ZM128.448 13.2496C128.725 13.4128 128.758 13.6251 128.758 15.8454C128.758 18.7025 128.741 18.7188 127.227 18.7188H126.234L126.185 15.8944L126.153 13.0863H127.13C127.683 13.0863 128.269 13.168 128.448 13.2496Z" fill="#141414"/>
<path d="M38.3474 9.7723C38.2822 9.82129 38.2334 12.6131 38.2334 15.9763V22.0659H39.8615H41.4896V17.0865V12.107H44.6645H47.8393V10.8825V9.65802H43.1503C40.5616 9.65802 38.3962 9.70701 38.3474 9.7723Z" fill="#141414"/>
<path d="M49.3047 15.862V22.0659H50.8514H52.3818L52.4306 20.3027L52.4795 18.5558L55.4101 18.4741C58.8129 18.3762 59.2197 18.2456 59.8549 17.0048C60.1643 16.3681 60.2132 16.0416 60.2132 14.1477C60.2132 12.2539 60.1643 11.9273 59.8549 11.2906C59.1059 9.82129 58.4059 9.65802 53.1144 9.65802H49.3047V15.862ZM56.5335 12.2866C57.0057 12.5151 57.1196 12.8417 57.1196 14.2294C57.1196 15.9599 57.0383 16.0252 54.4984 16.0252H52.3981V14.1804C52.3981 13.1518 52.4469 12.2703 52.512 12.2213C52.6912 12.0253 56.0939 12.0906 56.5335 12.2866Z" fill="#141414"/>
<path d="M62.1178 9.75594C62.053 9.82124 62.0041 12.613 62.0041 15.9762V22.0659H63.6971H65.3907L67.2793 18.67C68.3212 16.7925 69.2817 15.1272 69.412 14.9477C69.6235 14.6701 69.64 15.0783 69.6559 18.3435V22.0659H71.2028H72.7497V15.8619V9.64166L71.0891 9.69065L69.4444 9.73964L67.3931 13.413L65.3418 17.0864L65.2605 13.413L65.1785 9.73964L63.7136 9.69065C62.8992 9.67434 62.1832 9.69065 62.1178 9.75594Z" fill="#141414"/>
<path d="M75.1434 9.7723C75.078 9.82129 75.0291 12.6131 75.0291 15.9763V22.0659H76.6573H78.2855V19.5354V17.0048H80.4835H82.6815V19.5354V22.0659H84.3097H85.9379L85.9049 15.911L85.856 9.73968H84.3097H82.7628L82.7139 12.1396L82.665 14.5559H80.4835H78.2855V12.107V9.65802H76.7716C75.9248 9.65802 75.1923 9.70701 75.1434 9.7723Z" fill="#141414"/>
<path d="M93.6711 9.85379C93.6222 9.96807 93.6063 12.7435 93.6222 16.0251L93.6711 21.9841L95.2669 22.0331L96.8462 22.0821V20.2699V18.474H99.581C102.088 18.474 102.365 18.4413 103.033 18.1148C103.424 17.9026 103.879 17.5597 104.043 17.3311C104.482 16.7271 104.71 15.1598 104.612 13.4456C104.498 11.4537 104.124 10.6375 103.065 10.115C102.333 9.75581 102.105 9.7395 98.0183 9.69052C94.5827 9.64153 93.7365 9.67421 93.6711 9.85379ZM101.047 12.368C101.372 12.5966 101.405 12.7598 101.405 14.0659C101.405 16.0414 101.421 16.0251 98.8651 16.0251H96.8462V14.0659V12.1068H98.7672C100.232 12.1068 100.77 12.1721 101.047 12.368Z" fill="#141414"/>
<path d="M104.661 9.72307C104.661 9.77206 105.769 11.7965 107.103 14.2291C108.454 16.6617 109.546 18.8004 109.546 18.9637C109.546 19.4535 108.911 19.78 107.967 19.78H107.103V20.9065C107.103 22.1963 107.136 22.229 108.813 22.229C110.295 22.229 110.995 21.9677 111.841 21.1024C112.46 20.4657 112.948 19.5678 114.967 15.1923C116.286 12.3353 117.36 9.93533 117.36 9.83735C117.36 9.72307 116.791 9.65778 115.684 9.65778H114.007L112.72 12.7598C112.004 14.4577 111.386 15.8617 111.337 15.8617C111.288 15.8617 110.555 14.474 109.708 12.7924L108.162 9.73944L106.42 9.69045C105.443 9.67414 104.661 9.69045 104.661 9.72307Z" fill="#141414"/>
</g>
<defs>
<clipPath id="clip0_4002_1117">
<rect width="132" height="26" fill="white"/>
</clipPath>
</defs>
</svg>
