<svg width="44" height="44" viewBox="0 0 44 44" fill="none" xmlns="http://www.w3.org/2000/svg">
<rect x="2" y="2" width="40" height="40" rx="20" fill="#355848"/>
<rect x="2" y="2" width="40" height="40" rx="20" stroke="white" stroke-width="4"/>
<path d="M18.1982 16.9319C18.0417 17.0746 17.8639 17.2886 17.7999 17.4027C17.6433 17.7095 17.6647 18.2659 17.8497 18.5584C17.999 18.8081 18.4472 19.2361 18.5539 19.2361C18.5895 19.2361 18.7531 19.1077 18.9168 18.9436C19.429 18.4443 19.5357 17.9663 19.2653 17.4027C19.1302 17.1245 18.682 16.668 18.5468 16.668C18.5184 16.668 18.3619 16.7892 18.1982 16.9319Z" fill="white"/>
<path d="M18.7958 19.5993L16 20.5267V21.2686V22.0177H16.8466H17.7003L17.7216 21.6824L17.743 21.3542L19.2013 20.862C20.0052 20.5981 20.7167 20.3555 20.7878 20.3341C20.9016 20.2985 20.9087 20.4483 20.9087 22.7596V25.2278H21.7197H22.5379L22.5592 24.9211L22.5805 24.6215L25.0562 24.6001L27.5248 24.5858V22.5527V20.5267L24.7005 19.5922C23.1425 19.0857 21.8122 18.6648 21.7269 18.672C21.6486 18.672 20.3254 19.0929 18.7958 19.5993ZM24.2524 20.8406C25.0562 21.1045 25.7392 21.3471 25.7676 21.3756C25.8174 21.4184 25.8388 22.0533 25.8246 23.0378L25.8174 23.3017L24.2026 23.2875L22.5805 23.2661L22.5592 21.875C22.5379 20.4411 22.5592 20.2699 22.7086 20.3198C22.7513 20.3412 23.4485 20.5766 24.2524 20.8406Z" fill="white"/>
<path d="M16 26.5834V27.2255H21.7624H27.5248V26.5834V25.9414H21.7624H16V26.5834Z" fill="white"/>
</svg>
