<svg width="0" height="0" class="hidden">
  <symbol fill="none" xmlns="http://www.w3.org/2000/svg" viewBox="0 0 16 16" id="ic_arr_hor">
    <path d="M8.66666 12L5.33332 8L8.66666 4" stroke="currentColor" stroke-width="1.5" stroke-linecap="round"></path>
  </symbol>
  <symbol fill="none" xmlns="http://www.w3.org/2000/svg" viewBox="0 0 16 16" id="ic_arr_ver">
    <path d="M12 6.66669L8 10L4 6.66669" stroke="currentColor" stroke-width="1.5" stroke-linecap="round"></path>
  </symbol>
  <symbol fill="none" xmlns="http://www.w3.org/2000/svg" viewBox="0 0 16 16" id="ic_arrow_hor">
    <path d="M13.3334 8L9.33337 4M13.3334 8L9.33337 12M13.3334 8L6.33337 8M2.66671 8L4.33337 8" stroke="currentColor" stroke-width="1.5" stroke-linecap="round" stroke-linejoin="round"></path>
  </symbol>
  <symbol fill="none" xmlns="http://www.w3.org/2000/svg" viewBox="0 0 16 16" id="ic_cart">
    <path d="M11.3333 12C11.6869 12 12.0261 12.1405 12.2761 12.3905C12.5261 12.6406 12.6666 12.9797 12.6666 13.3333C12.6666 13.6869 12.5261 14.0261 12.2761 14.2761C12.0261 14.5262 11.6869 14.6666 11.3333 14.6666C10.9797 14.6666 10.6405 14.5262 10.3905 14.2761C10.1404 14.0261 9.99996 13.6869 9.99996 13.3333C9.99996 12.5933 10.5933 12 11.3333 12ZM0.666626 1.33331H2.84663L3.47329 2.66665H13.3333C13.5101 2.66665 13.6797 2.73688 13.8047 2.86191C13.9297 2.98693 14 3.1565 14 3.33331C14 3.44665 13.9666 3.55998 13.92 3.66665L11.5333 7.97998C11.3066 8.38665 10.8666 8.66665 10.3666 8.66665H5.39996L4.79996 9.75331L4.77996 9.83331C4.77996 9.87752 4.79752 9.91991 4.82877 9.95116C4.86003 9.98242 4.90242 9.99998 4.94663 9.99998H12.6666V11.3333H4.66663C4.313 11.3333 3.97387 11.1928 3.72382 10.9428C3.47377 10.6927 3.33329 10.3536 3.33329 9.99998C3.33329 9.76665 3.39329 9.54665 3.49329 9.35998L4.39996 7.72665L1.99996 2.66665H0.666626V1.33331ZM4.66663 12C5.02025 12 5.35939 12.1405 5.60943 12.3905C5.85948 12.6406 5.99996 12.9797 5.99996 13.3333C5.99996 13.6869 5.85948 14.0261 5.60943 14.2761C5.35939 14.5262 5.02025 14.6666 4.66663 14.6666C4.313 14.6666 3.97387 14.5262 3.72382 14.2761C3.47377 14.0261 3.33329 13.6869 3.33329 13.3333C3.33329 12.5933 3.92663 12 4.66663 12ZM10.6666 7.33331L12.52 3.99998H4.09329L5.66663 7.33331H10.6666Z" fill="currentColor"></path>
  </symbol>
  <symbol fill="none" xmlns="http://www.w3.org/2000/svg" viewBox="0 0 16 16" id="ic_cert">
    <path d="M5.99996 3.66732C5.99996 3.57891 6.03508 3.49413 6.09759 3.43162C6.1601 3.3691 6.24489 3.33398 6.33329 3.33398H9.66663C9.75503 3.33398 9.83982 3.3691 9.90233 3.43162C9.96484 3.49413 9.99996 3.57891 9.99996 3.66732C9.99996 3.75572 9.96484 3.84051 9.90233 3.90302C9.83982 3.96553 9.75503 4.00065 9.66663 4.00065H6.33329C6.24489 4.00065 6.1601 3.96553 6.09759 3.90302C6.03508 3.84051 5.99996 3.75572 5.99996 3.66732ZM4.99996 5.33398C4.91155 5.33398 4.82677 5.3691 4.76426 5.43162C4.70174 5.49413 4.66663 5.57891 4.66663 5.66732C4.66663 5.75572 4.70174 5.84051 4.76426 5.90302C4.82677 5.96553 4.91155 6.00065 4.99996 6.00065H11C11.0884 6.00065 11.1732 5.96553 11.2357 5.90302C11.2982 5.84051 11.3333 5.75572 11.3333 5.66732C11.3333 5.57891 11.2982 5.49413 11.2357 5.43162C11.1732 5.3691 11.0884 5.33398 11 5.33398H4.99996ZM4.66663 7.00065C4.66663 6.91225 4.70174 6.82746 4.76426 6.76495C4.82677 6.70244 4.91155 6.66732 4.99996 6.66732H11C11.0884 6.66732 11.1732 6.70244 11.2357 6.76495C11.2982 6.82746 11.3333 6.91225 11.3333 7.00065C11.3333 7.08906 11.2982 7.17384 11.2357 7.23635C11.1732 7.29887 11.0884 7.33398 11 7.33398H4.99996C4.91155 7.33398 4.82677 7.29887 4.76426 7.23635C4.70174 7.17384 4.66663 7.08906 4.66663 7.00065ZM4.99996 8.00065C4.91155 8.00065 4.82677 8.03577 4.76426 8.09828C4.70174 8.16079 4.66663 8.24558 4.66663 8.33398C4.66663 8.42239 4.70174 8.50717 4.76426 8.56969C4.82677 8.6322 4.91155 8.66732 4.99996 8.66732H11C11.0884 8.66732 11.1732 8.6322 11.2357 8.56969C11.2982 8.50717 11.3333 8.42239 11.3333 8.33398C11.3333 8.24558 11.2982 8.16079 11.2357 8.09828C11.1732 8.03577 11.0884 8.00065 11 8.00065H4.99996Z" fill="currentColor"></path>
    <path fill-rule="evenodd" clip-rule="evenodd" d="M12.6667 12.0007C12.6667 12.3543 12.5262 12.6934 12.2762 12.9435C12.0261 13.1935 11.687 13.334 11.3334 13.334H10.3334V14.6673L9.33337 14.1673L8.33337 14.6673V13.334H4.66671C4.31309 13.334 3.97395 13.1935 3.7239 12.9435C3.47385 12.6934 3.33337 12.3543 3.33337 12.0007V2.66732C3.33337 2.3137 3.47385 1.97456 3.7239 1.72451C3.97395 1.47446 4.31309 1.33398 4.66671 1.33398H11.3334C11.687 1.33398 12.0261 1.47446 12.2762 1.72451C12.5262 1.97456 12.6667 2.3137 12.6667 2.66732V12.0007ZM4.66671 2.00065C4.4899 2.00065 4.32033 2.07089 4.1953 2.19591C4.07028 2.32094 4.00004 2.49051 4.00004 2.66732V12.0007C4.00004 12.1775 4.07028 12.347 4.1953 12.4721C4.32033 12.5971 4.4899 12.6673 4.66671 12.6673H8.33337V11.8827C8.16365 11.6902 8.05306 11.4529 8.01488 11.1991C7.9767 10.9454 8.01255 10.686 8.11812 10.4522C8.2237 10.2183 8.39451 10.0198 8.61007 9.88064C8.82563 9.74144 9.07678 9.6674 9.33337 9.6674C9.58997 9.6674 9.84112 9.74144 10.0567 9.88064C10.2722 10.0198 10.4431 10.2183 10.5486 10.4522C10.6542 10.686 10.69 10.9454 10.6519 11.1991C10.6137 11.4529 10.5031 11.6902 10.3334 11.8827V12.6673H11.3334C11.5102 12.6673 11.6798 12.5971 11.8048 12.4721C11.9298 12.347 12 12.1775 12 12.0007V2.66732C12 2.49051 11.9298 2.32094 11.8048 2.19591C11.6798 2.07089 11.5102 2.00065 11.3334 2.00065H4.66671ZM9.66671 12.292C9.44807 12.3484 9.21868 12.3484 9.00004 12.292V13.5887L9.33337 13.422L9.66671 13.5887V12.292ZM9.33337 11.6673C9.51019 11.6673 9.67975 11.5971 9.80478 11.4721C9.9298 11.347 10 11.1775 10 11.0007C10 10.8238 9.9298 10.6543 9.80478 10.5292C9.67975 10.4042 9.51019 10.334 9.33337 10.334C9.15656 10.334 8.98699 10.4042 8.86197 10.5292C8.73695 10.6543 8.66671 10.8238 8.66671 11.0007C8.66671 11.1775 8.73695 11.347 8.86197 11.4721C8.98699 11.5971 9.15656 11.6673 9.33337 11.6673Z" fill="currentColor"></path>
  </symbol>
  <symbol fill="none" xmlns="http://www.w3.org/2000/svg" viewBox="0 0 24 24" id="ic_home">
    <path d="M4 19.1777V10.1777C4 9.86107 4.071 9.56107 4.213 9.27773C4.355 8.9944 4.55067 8.76107 4.8 8.57773L10.8 4.07773C11.15 3.81107 11.55 3.67773 12 3.67773C12.45 3.67773 12.85 3.81107 13.2 4.07773L19.2 8.57773C19.45 8.76107 19.646 8.9944 19.788 9.27773C19.93 9.56107 20.0007 9.86107 20 10.1777V19.1777C20 19.7277 19.804 20.1987 19.412 20.5907C19.02 20.9827 18.5493 21.1784 18 21.1777H15C14.7167 21.1777 14.4793 21.0817 14.288 20.8897C14.0967 20.6977 14.0007 20.4604 14 20.1777V15.1777C14 14.8944 13.904 14.6571 13.712 14.4657C13.52 14.2744 13.2827 14.1784 13 14.1777H11C10.7167 14.1777 10.4793 14.2737 10.288 14.4657C10.0967 14.6577 10.0007 14.8951 10 15.1777V20.1777C10 20.4611 9.904 20.6987 9.712 20.8907C9.52 21.0827 9.28267 21.1784 9 21.1777H6C5.45 21.1777 4.97933 20.9821 4.588 20.5907C4.19667 20.1994 4.00067 19.7284 4 19.1777Z" fill="currentColor"></path>
  </symbol>
  <symbol fill="none" xmlns="http://www.w3.org/2000/svg" viewBox="0 0 16 16" id="ic_menu">
    <path d="M14.0527 6L5.95443 6M2.05273 6L4.18564 6" stroke="currentColor" stroke-linecap="round"></path>
    <path d="M14.0527 10L5.95443 10M2.05273 10L4.18564 10" stroke="currentColor" stroke-linecap="round"></path>
  </symbol>
  <symbol fill="none" xmlns="http://www.w3.org/2000/svg" viewBox="0 0 16 16" id="ic_minus">
    <path d="M14 8L5.9017 8M2 8L4.1329 8" stroke="currentColor" stroke-linecap="round"></path>
  </symbol>
  <symbol fill="none" xmlns="http://www.w3.org/2000/svg" viewBox="0 0 16 16" id="ic_pdf">
    <path d="M4.27778 6.82287V6.40065H3.85555V6.82287H4.27778ZM7.65555 6.82287V6.40065H7.23333V6.82287H7.65555ZM7.65555 10.2007H7.23333V10.6229H7.65555V10.2007ZM13.5667 4.28954H13.9889V4.11474L13.8656 3.99061L13.5667 4.28954ZM11.0333 1.75621L11.3323 1.45727L11.2081 1.33398H11.0333V1.75621ZM4.27778 7.2451H5.12222V6.40065H4.27778V7.2451ZM4.7 10.6229V8.51176H3.85555V10.6229H4.7ZM4.7 8.51176V6.82287H3.85555V8.51176H4.7ZM5.12222 8.08954H4.27778V8.93398H5.12222V8.08954ZM5.54444 7.66732C5.54444 7.7793 5.49996 7.88669 5.42078 7.96587C5.34159 8.04506 5.2342 8.08954 5.12222 8.08954V8.93398C5.45816 8.93398 5.78034 8.80053 6.01789 8.56299C6.25543 8.32544 6.38889 8.00326 6.38889 7.66732H5.54444ZM5.12222 7.2451C5.2342 7.2451 5.34159 7.28958 5.42078 7.36876C5.49996 7.44794 5.54444 7.55534 5.54444 7.66732H6.38889C6.38889 7.33138 6.25543 7.0092 6.01789 6.77165C5.78034 6.5341 5.45816 6.40065 5.12222 6.40065V7.2451ZM7.23333 6.82287V10.2007H8.07778V6.82287H7.23333ZM7.65555 10.6229H8.5V9.77843H7.65555V10.6229ZM9.76666 9.35621V7.66732H8.92222V9.35621H9.76666ZM8.5 6.40065H7.65555V7.2451H8.5V6.40065ZM9.76666 7.66732C9.76666 7.33138 9.63321 7.0092 9.39567 6.77165C9.15812 6.5341 8.83594 6.40065 8.5 6.40065V7.2451C8.61198 7.2451 8.71937 7.28958 8.79855 7.36876C8.87774 7.44794 8.92222 7.55534 8.92222 7.66732H9.76666ZM8.5 10.6229C8.83594 10.6229 9.15812 10.4894 9.39567 10.2519C9.63321 10.0143 9.76666 9.69215 9.76666 9.35621H8.92222C8.92222 9.46819 8.87774 9.57558 8.79855 9.65476C8.71937 9.73394 8.61198 9.77843 8.5 9.77843V10.6229ZM10.6111 6.40065V10.6229H11.4556V6.40065H10.6111ZM11.0333 7.2451H13.1444V6.40065H11.0333V7.2451ZM11.0333 8.93398H12.3V8.08954H11.0333V8.93398ZM3.85555 5.55621V2.60065H3.01111V5.55621H3.85555ZM13.1444 4.28954V5.55621H13.9889V4.28954H13.1444ZM4.27778 2.17843H11.0333V1.33398H4.27778V2.17843ZM10.7344 2.05514L13.2677 4.58847L13.8656 3.99061L11.3323 1.45727L10.7344 2.05514ZM3.85555 2.60065C3.85555 2.48867 3.90004 2.38128 3.97922 2.30209C4.0584 2.22291 4.16579 2.17843 4.27778 2.17843V1.33398C3.94183 1.33398 3.61965 1.46744 3.38211 1.70498C3.14456 1.94253 3.01111 2.26471 3.01111 2.60065H3.85555ZM3.01111 11.4673V12.734H3.85555V11.4673H3.01111ZM4.27778 14.0007H12.7222V13.1562H4.27778V14.0007ZM13.9889 12.734V11.4673H13.1444V12.734H13.9889ZM12.7222 14.0007C13.0582 14.0007 13.3803 13.8672 13.6179 13.6297C13.8554 13.3921 13.9889 13.0699 13.9889 12.734H13.1444C13.1444 12.846 13.1 12.9534 13.0208 13.0325C12.9416 13.1117 12.8342 13.1562 12.7222 13.1562V14.0007ZM3.01111 12.734C3.01111 13.0699 3.14456 13.3921 3.38211 13.6297C3.61965 13.8672 3.94183 14.0007 4.27778 14.0007V13.1562C4.16579 13.1562 4.0584 13.1117 3.97922 13.0325C3.90004 12.9534 3.85555 12.846 3.85555 12.734H3.01111Z" fill="currentColor"></path>
  </symbol>
  <symbol fill="none" xmlns="http://www.w3.org/2000/svg" viewBox="0 0 16 16" id="ic_plus">
    <path d="M7.50331 2.50391L7.50331 9.47745M7.50331 12.8372V11.0006M2.33331 7.66724H12.6666" stroke="currentColor" stroke-linecap="round"></path>
  </symbol>
  <symbol fill="none" xmlns="http://www.w3.org/2000/svg" viewBox="0 0 16 16" id="ic_remove">
    <path d="M12 3.33594V8.0026V9.16927M4 3.33594V12.6693C4 13.0026 4.33333 13.3359 4.66667 13.3359H8H11.3333C11.6667 13.3359 12 13.0026 12 12.6693V11.5026" stroke="currentColor" stroke-linecap="round" stroke-linejoin="round"></path>
    <path d="M2.66667 3.33594H13.3333" stroke="currentColor" stroke-linecap="round" stroke-linejoin="round"></path>
    <path d="M6.66667 2.66797H9.33334M6.66667 6.0013V10.668M9.33334 6.0013V10.668" stroke="currentColor" stroke-linecap="round" stroke-linejoin="round"></path>
  </symbol>
  <symbol fill="none" xmlns="http://www.w3.org/2000/svg" viewBox="0 0 45 45" id="ic_success">
    <path d="M7.42041 22.2608L16.6958 31.5362L37.1016 11.1304" stroke="currentColor" stroke-width="5.3913" stroke-linecap="round"></path>
  </symbol>
  <symbol fill="none" xmlns="http://www.w3.org/2000/svg" viewBox="0 0 16 16" id="ic_tg">
    <path d="M12.7773 4.1001H12.7783C12.7796 4.10011 12.7869 4.09984 12.7988 4.10107C12.8089 4.10212 12.8195 4.10479 12.8301 4.10693C12.8419 4.19408 12.8466 4.28187 12.8408 4.36963C12.6845 5.98899 12.0101 9.93753 11.665 11.7739C11.5997 12.121 11.5121 12.297 11.4512 12.3774C11.423 12.4146 11.4042 12.4273 11.3994 12.4302C11.3982 12.4309 11.397 12.4309 11.3965 12.4312H11.3975C11.1341 12.4542 10.8998 12.3145 10.4326 11.9829L10.4307 11.9819C10.3177 11.9023 10.1946 11.815 10.0645 11.73H10.0635C9.5875 11.4198 9.22061 11.1707 8.84961 10.9194H8.84863C8.50887 10.6897 8.16486 10.4566 7.73535 10.1753C7.55087 10.0545 7.46876 9.9698 7.43555 9.92432C7.44566 9.90712 7.46339 9.8795 7.49512 9.84131C7.56361 9.7589 7.65692 9.66885 7.78613 9.54541L7.78711 9.54443C7.8665 9.46812 7.95576 9.38194 8.04395 9.2915L8.04688 9.28857C8.04851 9.28696 8.05891 9.27725 8.08301 9.25439C8.10716 9.23149 8.1398 9.2007 8.17969 9.16357L8.49219 8.87451C8.89601 8.5017 9.4914 7.95142 9.99121 7.47314C10.2406 7.2345 10.4711 7.01006 10.6426 6.83252C10.7276 6.74447 10.8037 6.66163 10.8623 6.59229C10.8911 6.55821 10.9217 6.52014 10.9482 6.48193C10.9623 6.46166 11.0213 6.3783 11.0479 6.26807L11.0508 6.2583C11.067 6.18443 11.0718 6.0907 11.0576 5.99561C11.0436 5.90165 10.9978 5.72874 10.8428 5.59229C10.6908 5.45845 10.5186 5.43275 10.4092 5.43213C10.3062 5.43159 10.2145 5.45317 10.1865 5.45947C10.1071 5.47744 10.0383 5.51526 10.0312 5.51904C10.0045 5.5331 9.97438 5.5502 9.94434 5.56787C9.8831 5.6039 9.80205 5.65483 9.70312 5.71729C9.50433 5.84279 9.21999 6.02668 8.85254 6.26807C8.11696 6.75129 7.03815 7.46974 5.61719 8.42334L5.61426 8.42529C5.24376 8.6774 4.96844 8.7574 4.77344 8.75342C4.64779 8.75074 4.4229 8.71116 4.13379 8.63916C3.85703 8.57022 3.55698 8.48149 3.29785 8.39795H3.29883C3.21622 8.37059 3.13119 8.34413 3.06348 8.32275H3.06152C2.92403 8.27992 2.80814 8.24364 2.70703 8.20752C2.70453 8.20663 2.70168 8.20548 2.69922 8.20459C2.77229 8.16748 2.86282 8.12634 2.97363 8.08252L2.98145 8.07959L2.98828 8.07666C6.03082 6.75942 8.05608 5.89235 9.06641 5.4751C10.5175 4.87547 11.3824 4.52869 11.9316 4.33057C12.4894 4.12936 12.6706 4.10198 12.7773 4.1001Z" fill="currentColor" stroke="currentColor"></path>
  </symbol>
  <symbol fill="none" xmlns="http://www.w3.org/2000/svg" viewBox="0 0 16 16" id="ic_vk">
    <path d="M8.09705 5.13184H8.09802C8.28029 5.13346 8.45111 5.14737 8.61072 5.18066C8.63231 5.18517 8.64301 5.1908 8.64587 5.19238C8.64771 5.19343 8.64761 5.19318 8.64685 5.19238C8.64902 5.19531 8.65981 5.21206 8.66736 5.25488C8.68473 5.35309 8.69203 5.44966 8.68982 5.54004C8.68357 5.80324 8.6739 6.08069 8.66443 6.36035L8.64294 7.19629C8.63982 7.43994 8.65788 7.70232 8.71716 7.96094V7.96191C8.76855 8.18496 8.91029 8.48418 9.23865 8.5918C9.58122 8.70401 9.87572 8.52882 10.0463 8.35938C10.3442 8.06335 10.6002 7.73585 10.8304 7.41992C11.1596 6.96774 11.4232 6.48773 11.6478 6.00098L11.8607 5.5127C11.8766 5.47428 11.8902 5.44769 11.8998 5.42871L12.0052 5.42285C12.6936 5.42135 13.3813 5.42077 14.0687 5.42285C14.0832 5.42292 14.0973 5.42436 14.1107 5.4248C14.0151 5.68462 13.8525 5.93613 13.642 6.2207C13.4325 6.50382 13.2196 6.78124 13.0043 7.05957L12.3519 7.90332C12.2793 7.998 12.2185 8.09451 12.1674 8.18262V8.18359C12.0726 8.34756 11.9662 8.57458 11.9974 8.84277C12.0294 9.11618 12.1898 9.31524 12.3344 9.45801C12.7519 9.87037 13.0956 10.1589 13.4623 10.543C13.7081 10.8008 13.9336 11.0787 14.1244 11.3672C14.1388 11.389 14.1474 11.4076 14.1537 11.4219C14.1366 11.4275 14.1131 11.4342 14.0814 11.4385C13.9722 11.4532 13.5625 11.4547 13.1136 11.4492C12.7062 11.4443 12.2791 11.4337 12.2435 11.4336C11.9531 11.4323 11.7176 11.3389 11.5267 11.1631H11.5258C11.2132 10.8748 10.958 10.5862 10.6234 10.251C10.5187 10.146 10.3997 10.0379 10.266 9.94043C10.0713 9.79825 9.80346 9.68857 9.51013 9.75C9.19942 9.8151 8.99685 10.0421 8.89294 10.292V10.293C8.81871 10.4725 8.76433 10.746 8.73083 10.9355C8.69572 11.1343 8.66943 11.3288 8.66541 11.3828C8.66515 11.3861 8.66378 11.389 8.66345 11.3916C8.65077 11.3957 8.62877 11.4024 8.59314 11.4043C7.68149 11.4516 6.84678 11.351 6.08435 10.96C5.42464 10.6218 4.88692 10.1393 4.40857 9.55469C3.63067 8.60404 3.01047 7.55072 2.43396 6.44531C2.43328 6.44395 2.43066 6.43971 2.42615 6.43066C2.42052 6.41937 2.41212 6.40379 2.40271 6.38477C2.38394 6.34681 2.35925 6.29499 2.32947 6.23438C2.26987 6.11307 2.19301 5.95585 2.11658 5.79883C2.04859 5.65916 1.98047 5.52063 1.92615 5.40723C2.1135 5.40592 2.34833 5.40682 2.58337 5.40918C2.83366 5.41169 3.08196 5.41569 3.2699 5.41895C3.45491 5.42215 3.56761 5.42466 3.57751 5.4248C3.67213 5.42971 3.70852 5.44873 3.72107 5.45703C3.72591 5.46025 3.73615 5.46745 3.74939 5.48438L3.79724 5.57129C4.18443 6.48664 4.67971 7.3607 5.33826 8.15039C5.42805 8.2584 5.53176 8.3526 5.63806 8.43262L5.74451 8.50781C5.90059 8.61032 6.12675 8.69168 6.37439 8.62402C6.63381 8.553 6.78964 8.35398 6.86267 8.1582C6.91297 8.02378 6.95222 7.84967 6.97888 7.69922C6.99241 7.62284 7.00402 7.54207 7.01306 7.46387L7.02966 7.24414C7.03496 6.98376 7.03502 6.76761 7.02966 6.55273L6.99939 5.86816L6.98279 5.70312C6.95613 5.52926 6.89528 5.33371 6.75818 5.15625C6.75032 5.14609 6.74095 5.13675 6.73279 5.12695C7.17548 5.1101 7.61385 5.12724 8.09705 5.13184Z" fill="currentColor" stroke="currentColor"></path>
  </symbol>
  <symbol fill="none" xmlns="http://www.w3.org/2000/svg" viewBox="0 0 40 40" id="ic_whatsapp">
    <path d="M36.6667 20.0007C36.6667 29.2057 29.205 36.6673 20 36.6673C17.0743 36.6714 14.1994 35.902 11.6667 34.4373L3.33338 35.834L4.72004 26.6673C3.80395 24.5642 3.33188 22.2946 3.33338 20.0007C3.33338 10.7957 10.795 3.33398 20 3.33398C29.205 3.33398 36.6667 10.7957 36.6667 20.0007Z" stroke="currentColor" stroke-width="2" stroke-linecap="round" stroke-linejoin="round"></path>
    <path d="M21.6001 23.1146L25.0667 22.438L28.3334 23.693V26.7313C28.3334 27.743 27.4634 28.5146 26.4834 28.298C23.9451 27.7413 19.3334 26.3413 16.1301 23.1146C13.0801 20.043 12.0384 15.7646 11.6834 13.403C11.5417 12.458 12.2901 11.668 13.2384 11.668H16.3951L17.6201 14.9496L16.9717 18.4513" stroke="currentColor" stroke-width="2" stroke-linecap="round" stroke-linejoin="round"></path>
  </symbol>
</svg>